<svg width="20" height="20" xmlns="http://www.w3.org/2000/svg" xmlns:xlink="http://www.w3.org/1999/xlink" xmlns:svgjs="http://svgjs.com/svgjs" viewBox="0.001 0 19.999 20" fill="#b3b3b3"><svg xmlns="http://www.w3.org/2000/svg" width="20" height="20" viewBox="1 2 18.995 18.996"><path paint-order="stroke fill markers" fill-rule="evenodd" d="M10.498 2c5.246 0 9.497 4.252 9.497 9.498 0 5.246-4.25 9.498-9.497 9.498a9.498 9.498 0 1 1 0-18.996zm0 1.913c4.2 0 7.605 3.384 7.605 7.585a7.605 7.605 0 1 1-15.21 0c0-4.2 3.405-7.585 7.605-7.585zm-.947 6.46V5.6c0-.542.393-.982.936-.982.542 0 .982.44.982.982v5.078l3.602.02c.542 0 .982.44.982.983 0 .542-.44.935-.982.935h-4.584c-.543 0-.936-.393-.936-.935v-1.31z"/></svg></svg>